<svg xmlns="http://www.w3.org/2000/svg" width="24" height="18" viewBox="0 0 24 18">
    <path fill="#FFF" fill-rule="evenodd" d="M21.391 0H2.61C1.168 0 0 1.216 0 2.713v12.574c0 .718.275 1.41.764 1.918.49.509 1.153.795 1.845.795H21.39c.692 0 1.356-.286 1.845-.795.489-.509.764-1.2.764-1.918V2.713c0-.718-.275-1.41-.764-1.918A2.559 2.559 0 0 0 21.39 0zm-9.376 8.457l-1.826 1.848.43 2.61h.001a.553.553 0 0 1-.208.53.505.505 0 0 1-.549.042l-2.25-1.231-2.255 1.22a.507.507 0 0 1-.55-.04.555.555 0 0 1-.206-.532l.43-2.61-1.823-1.837a.555.555 0 0 1-.131-.556.527.527 0 0 1 .42-.369l2.52-.38L7.145 4.78a.519.519 0 0 1 .468-.304c.2 0 .381.117.469.304l1.127 2.374 2.53.365c.2.03.366.177.425.379.06.201.001.42-.149.56zm8.933 2.85h-6.861V10.22h6.861v1.085zm0-3.528h-6.861V6.694h6.861v1.085z"/>
</svg>
